<?xml version="1.0" encoding="UTF-8" standalone="no"?>
<!-- Created with Inkscape (http://www.inkscape.org/) -->

<svg
   xmlns:dc="http://purl.org/dc/elements/1.1/"
   xmlns:cc="http://creativecommons.org/ns#"
   xmlns:rdf="http://www.w3.org/1999/02/22-rdf-syntax-ns#"
   xmlns:svg="http://www.w3.org/2000/svg"
   xmlns="http://www.w3.org/2000/svg"
   xmlns:sodipodi="http://sodipodi.sourceforge.net/DTD/sodipodi-0.dtd"
   xmlns:inkscape="http://www.inkscape.org/namespaces/inkscape"
   width="256"
   height="256"
   viewBox="0 0 67.733333 67.733333"
   version="1.1"
   id="svg8"
   inkscape:version="0.92.4 (5da689c313, 2019-01-14)"
   sodipodi:docname="icon.svg">
  <defs
     id="defs2" />
  <sodipodi:namedview
     id="base"
     pagecolor="#ffffff"
     bordercolor="#666666"
     borderopacity="1.0"
     inkscape:pageopacity="0.0"
     inkscape:pageshadow="2"
     inkscape:zoom="1.979899"
     inkscape:cx="276.09123"
     inkscape:cy="95.86588"
     inkscape:document-units="px"
     inkscape:current-layer="layer2"
     showgrid="false"
     units="px"
     inkscape:window-width="1920"
     inkscape:window-height="1017"
     inkscape:window-x="-8"
     inkscape:window-y="-8"
     inkscape:window-maximized="1" />
  <metadata
     id="metadata5">
    <rdf:RDF>
      <cc:Work
         rdf:about="">
        <dc:format>image/svg+xml</dc:format>
        <dc:type
           rdf:resource="http://purl.org/dc/dcmitype/StillImage" />
        <dc:title></dc:title>
      </cc:Work>
    </rdf:RDF>
  </metadata>
  <g
     inkscape:groupmode="layer"
     id="layer3"
     inkscape:label="Layer 3"
     style="display:inline">
    <rect
       style="fill:#3366cc;fill-opacity:1;stroke-width:0.26458332"
       id="rect849"
       width="67.73333"
       height="67.73333"
       x="0.26726952"
       y="0.38141236"
       ry="8.4666662" />
  </g>
  <g
     inkscape:groupmode="layer"
     id="layer2"
     inkscape:label="Layer 2"
     style="display:inline">
    <path
       style="fill:#ffffff;fill-opacity:1;stroke-width:0.76324546"
       d="m 128,30.304688 a 97.695418,97.695418 0 0 0 -14.61523,1.222656 l -4.42774,29.30664 A 70.926378,70.926378 0 0 0 99.5,64.363281 L 76.488281,45.130859 A 97.695418,97.695418 0 0 0 53.904297,64.503906 l 15.464844,25.457032 a 70.926378,70.926378 0 0 0 -5.080079,9.167968 l -29.55664,0.126953 A 97.695418,97.695418 0 0 0 30.304688,128 a 97.695418,97.695418 0 0 0 0.01562,0.33008 l 27.90625,9.22851 a 70.926378,70.926378 0 0 0 2.132813,10.86329 l -22,18.33007 a 97.695418,97.695418 0 0 0 16.417969,25.79297 l 26.957031,-10.36328 a 70.926378,70.926378 0 0 0 6.214844,4.91602 l -4.851563,27.63086 a 97.695418,97.695418 0 0 0 30.062508,9.75976 l 13.56445,-24.67969 a 70.926378,70.926378 0 0 0 1.81641,0.0918 70.926378,70.926378 0 0 0 5.66601,-0.25586 l 13.82031,23.94531 a 97.695418,97.695418 0 0 0 29.02539,-11.21289 l -5.55468,-27.03515 a 70.926378,70.926378 0 0 0 5.30859,-4.47852 l 26.29688,9.48633 a 97.695418,97.695418 0 0 0 16.00586,-27.10938 l -21.79102,-17.29296 a 70.926378,70.926378 0 0 0 1.46484,-7.71289 l 26.90235,-9.96485 a 97.695418,97.695418 0 0 0 0.01,-0.26953 97.695418,97.695418 0 0 0 -5.10547,-30.902344 l -28.44336,0.582032 a 70.926378,70.926378 0 0 0 -4.49414,-7.826172 L 202.41992,64.740234 A 97.695418,97.695418 0 0 0 180.08398,45.390625 L 158.1875,64.625 a 70.926378,70.926378 0 0 0 -9.42773,-3.599609 L 143.49023,31.591797 A 97.695418,97.695418 0 0 0 128,30.304688 Z m 0,68.185546 A 29.510119,29.510119 0 0 1 157.50977,128 29.510119,29.510119 0 0 1 128,157.50977 29.510119,29.510119 0 0 1 98.490234,128 29.510119,29.510119 0 0 1 128,98.490234 Z"
       transform="scale(0.26458333)"
       id="path835"
       inkscape:connector-curvature="0" />
  </g>
</svg>
